<?xml version="1.0" encoding="UTF-8"?>
<svg id="Layer_2" data-name="Layer 2" xmlns="http://www.w3.org/2000/svg" viewBox="0 0 923 300">
  <defs>
    <style>
      .cls-1 {
        fill: #fff;
      }

      .cls-1, .cls-2 {
        stroke-width: 0px;
      }

      .cls-2 {
        fill: #fac400;
      }

      .cls-3 {
        fill: none;
        stroke: #fac400;
        stroke-miterlimit: 10;
        stroke-width: 6px;
      }
    </style>
  </defs>
  <g id="Layer_1-2" data-name="Layer 1">
    <rect class="cls-2" x="452" y="3" width="468" height="294"/>
    <g>
      <path class="cls-1" d="m598.84,148.42c-.32,8.54-.95,24.92-4.11,35.59-4.74,15.19-20.54,31.32-49.62,31.32s-46.14-17.56-52.14-36.07c-5.06-15.9-5.37-38.92-5.37-49.36,0-31.56.32-85.42,59.1-85.42,28.13,0,45.19,13.29,49.93,33.7,2.84,13.05,2.21,29.9,2.21,40.1h-36.03c0-11.86.95-24.2-1.9-36.31-1.9-7.59-5.37-13.53-15.8-13.53-15.8,0-18.33,13.29-19.28,21.83-1.58,14-.95,26.81-.95,42.71,0,11.15-.32,22.54,1.26,36.54.95,8.31,3.16,21.83,18.65,21.83,14.22,0,16.12-11.15,17.38-21.83.95-7.59.63-14.24.63-21.12h36.03Z"/>
      <path class="cls-1" d="m656.04,213.68h-35.71V46.15h35.71v167.53Z"/>
      <path class="cls-1" d="m700.6,213.68V70.12h-29.71v-23.97h95.12v23.97h-29.71v143.56h-35.71Z"/>
      <path class="cls-1" d="m856.4,46.15h36.34l-44.56,108.2v59.32h-35.71v-59.32l-42.03-108.2h37.29l20.23,58.14,3.48,17.32h.95l3.48-17.32,20.54-58.14Z"/>
    </g>
    <rect class="cls-3" x="3" y="3" width="917" height="294"/>
    <g>
      <path class="cls-2" d="m113.08,43.93v30h-36v62.4h34.5v28.8h-34.5v90.6h-33.9V43.93h69.9Z"/>
      <path class="cls-2" d="m196.78,178.34c-1.8-7.5-7.8-12.3-23.7-12.3h-8.1v89.7h-33.9V43.93h46.2c16.2,0,29.1,3.3,39.6,13.8s13.5,22.5,13.5,43.2c0,28.8-5.1,39.3-15.6,45-6,3.3-12,3.9-21.9,4.8v.9c12.6,1.5,18,3,23.1,6.6,18.9,12.9,15.9,34.5,15.6,60.9-.3,16.5,1.2,21.9,6.6,30.6l.3,6h-31.5c-5.4-10.5-8.7-22.8-8.7-49.8,0-8.1.3-20.1-1.5-27.6Zm-17.7-41.7c12.6,0,14.7-4.8,15.9-9,1.5-6.3,1.8-15,1.8-20.1,0-7.5-.6-15.6-1.5-20.7-1.5-9-4.5-12.9-17.4-12.9h-12.9v62.7h14.1Z"/>
      <path class="cls-2" d="m325.78,43.93v30h-36v60.9h34.5v28.8h-34.5v61.8h37.2v30.3h-71.1V43.93h69.9Z"/>
      <path class="cls-2" d="m413.98,43.93v30h-36v60.9h34.5v28.8h-34.5v61.8h37.2v30.3h-71.1V43.93h69.9Z"/>
    </g>
    <g>
      <path class="cls-1" d="m547.79,243.13h14.55c5.67,0,8.7.5,11.25,1.33,4.92,1.63,5.86,3.92,5.86,8.55,0,4.13-.76,6.55-4.91,7.88-2.17.71-4.63.96-9.36.96h-6.71v10.72h-10.68v-29.44Zm14.55,14.89c4.73,0,5.58-.67,5.95-1.25.47-.71.57-1.92.57-3.67,0-1.08.09-2.92-.47-4-.66-1.25-2.08-1.79-5.86-1.79h-4.06v10.72h3.88Z"/>
      <path class="cls-1" d="m595.71,243.13v25.23h12.67v4.21h-23.34v-29.44h10.68Z"/>
      <path class="cls-1" d="m620.66,243.13h13.99l11.53,29.44h-11.53l-2.17-6.71h-10.59l-2.27,6.71h-10.49l11.53-29.44Zm2.46,18.93h8.13l-2.74-8.72-1.04-3.88h-.28l-1.04,3.88-3.02,8.72Z"/>
      <path class="cls-1" d="m651.85,272.57v-25.23h-8.88v-4.21h28.45v4.21h-8.88v25.23h-10.68Z"/>
      <path class="cls-1" d="m698.35,243.13v4.17h-11.34v8.67h10.87v4h-10.87v12.59h-10.68v-29.44h22.02Z"/>
      <path class="cls-1" d="m705.06,249.18c1.7-3.13,6.43-6.34,15.69-6.34s13.99,3.21,15.69,6.34c1.51,2.79,1.61,6.84,1.61,8.67s-.09,5.88-1.61,8.67c-1.7,3.13-6.43,6.34-15.69,6.34s-13.99-3.21-15.69-6.34c-1.51-2.79-1.61-6.84-1.61-8.67s.09-5.88,1.61-8.67Zm21.45,1.71c-.38-1.67-.95-3.84-5.77-3.84s-5.39,2.17-5.76,3.84c-.47,2.46-.38,4.42-.38,6.96s-.09,4.5.38,6.96c.38,1.67.94,3.84,5.76,3.84s5.39-2.17,5.77-3.84c.47-2.46.38-4.42.38-6.96s.09-4.5-.38-6.96Z"/>
      <path class="cls-1" d="m765.92,261.81c-.57-1.04-2.46-1.71-7.47-1.71h-2.55v12.47h-10.68v-29.44h14.55c5.1,0,9.17.46,12.48,1.92,3.4,1.5,4.25,3.13,4.25,6,0,4-1.61,5.46-4.92,6.26-1.89.46-3.78.54-6.9.67v.12c3.97.21,5.67.42,7.28.92,5.95,1.79,5.01,4.8,4.92,8.47-.09,2.29.38,3.04,2.08,4.25l.09.83h-9.92c-1.7-1.46-2.74-3.17-2.74-6.92,0-1.13.09-2.79-.47-3.84Zm-5.58-5.8c3.97,0,4.63-.67,5.01-1.25.47-.88.57-2.09.57-2.79,0-1.04-.19-2.17-.47-2.88-.47-1.25-1.42-1.79-5.48-1.79h-4.06v8.72h4.44Z"/>
      <path class="cls-1" d="m800.04,272.57l-6.62-22.89h-.28l.28,2.63v20.27h-8.98v-29.44h15.31l5.58,18.81h.19l5.58-18.81h15.31v29.44h-8.98v-20.27l.28-2.63h-.28l-6.62,22.89h-10.77Z"/>
    </g>
  </g>
</svg>