<?xml version="1.0" encoding="utf-8"?>
<!-- Generator: Adobe Illustrator 27.9.0, SVG Export Plug-In . SVG Version: 6.00 Build 0)  -->
<svg version="1.1" id="Layer_1" xmlns="http://www.w3.org/2000/svg" xmlns:xlink="http://www.w3.org/1999/xlink" x="0px" y="0px"
	 viewBox="0 0 108 108" style="enable-background:new 0 0 108 108;" xml:space="preserve">
<style type="text/css">
	.st0{fill:url(#SVGID_1_);}
	.st1{fill:#FFFFFF;}
</style>
<g>
	
		<linearGradient id="SVGID_1_" gradientUnits="userSpaceOnUse" x1="92.1883" y1="100.3317" x2="8.6883" y2="14.3317" gradientTransform="matrix(1 0 0 -1 0 110)">
		<stop  offset="0" style="stop-color:#FAC400"/>
		<stop  offset="1" style="stop-color:#945B00"/>
	</linearGradient>
	<path class="st0" d="M28,3h52c11,0,20,9,20,20v52c0,11-9,20-20,20H28C17,95,8,86,8,75V23C8,12,17,3,28,3z"/>
</g>
<path class="st1" d="M59.2,30.2c-0.8-0.8-1.8-1.2-2.8-1.2H42c-2.2,0-4,1.8-4,4v32c0,2.2,1.8,4,4,4h24c2.2,0,4-1.8,4-4V42.7
	c0-1.1-0.4-2.1-1.2-2.8L59.2,30.2z M60,57h-4v4c0,1.1-0.9,2-2,2s-2-0.9-2-2v-4h-4c-1.1,0-2-0.9-2-2s0.9-2,2-2h4v-4c0-1.1,0.9-2,2-2
	s2,0.9,2,2v4h4c1.1,0,2,0.9,2,2S61.1,57,60,57z M56,41v-9l11,11h-9C56.9,43,56,42.1,56,41z"/>
</svg>
