<?xml version="1.0" encoding="UTF-8"?>
<svg id="Layer_2" data-name="Layer 2" xmlns="http://www.w3.org/2000/svg" xmlns:xlink="http://www.w3.org/1999/xlink" viewBox="0 0 1024 1024">
  <defs>
    <style>
      .cls-1 {
        fill: url(#linear-gradient);
      }

      .cls-1, .cls-2, .cls-3 {
        stroke-width: 0px;
      }

      .cls-2 {
        fill: #fff;
      }

      .cls-3 {
        fill: #fac400;
      }

      .cls-4 {
        fill: none;
        stroke: #fac400;
        stroke-miterlimit: 10;
        stroke-width: 6px;
      }
    </style>
    <linearGradient id="linear-gradient" x1="68.08" y1="955.92" x2="955.92" y2="68.08" gradientUnits="userSpaceOnUse">
      <stop offset="0" stop-color="#fac400"/>
      <stop offset="1" stop-color="#fff9d0"/>
    </linearGradient>
    <symbol id="Icon" viewBox="0 0 1024 1024">
      <g>
        <path id="App_Icon_Placeholder" data-name="App Icon Placeholder" class="cls-1" d="m356.99,0h310c102.81,0,154.19,0,209.53,17.49,60.42,21.99,108,69.58,129.98,129.99,17.5,55.34,17.5,106.73,17.5,209.53v309.98c0,102.8,0,154.19-17.5,209.53-21.98,60.42-69.57,108-129.98,129.98-55.33,17.5-106.72,17.5-209.53,17.5h-310c-102.79,0-154.18,0-209.51-17.5-60.42-21.98-108-69.57-129.98-129.98C0,821.18,0,769.79,0,666.99v-309.98c0-102.79,0-154.18,17.5-209.53C39.48,87.07,87.07,39.48,147.48,17.49,202.82,0,254.2,0,356.99,0h0"/>
        <rect class="cls-2" x="154.15" y="63.74" width="691.26" height="448.63"/>
        <rect class="cls-3" x="154.15" y="511.69" width="691.26" height="448.63"/>
        <g>
          <path class="cls-2" d="m360.68,733.6c-.48,13.03-1.45,38.02-6.27,54.31-7.23,23.17-31.34,47.8-75.71,47.8s-70.41-26.8-79.57-55.04c-7.72-24.26-8.2-59.38-8.2-75.32,0-48.16.48-130.35,90.18-130.35,42.92,0,68.96,20.28,76.19,51.42,4.34,19.91,3.38,45.62,3.38,61.19h-54.97c0-18.11,1.45-36.93-2.89-55.4-2.89-11.59-8.2-20.64-24.11-20.64-24.11,0-27.97,20.28-29.42,33.31-2.41,21.36-1.45,40.92-1.45,65.18,0,17.02-.48,34.4,1.93,55.76,1.45,12.67,4.82,33.31,28.45,33.31,21.7,0,24.59-17.02,26.52-33.31,1.45-11.59.96-21.73.96-32.23h54.97Z"/>
          <path class="cls-2" d="m447.96,833.17h-54.49v-255.64h54.49v255.64Z"/>
          <path class="cls-2" d="m515.95,833.17v-219.07h-45.33v-36.57h145.15v36.57h-45.33v219.07h-54.49Z"/>
          <path class="cls-2" d="m753.69,577.54h55.46l-68,165.11v90.52h-54.49v-90.52l-64.14-165.11h56.9l30.86,88.71,5.31,26.43h1.45l5.31-26.43,31.34-88.71Z"/>
        </g>
        <g>
          <path class="cls-2" d="m282.77,878.12h22.21c8.65,0,13.27.76,17.16,2.04,7.5,2.48,8.94,5.98,8.94,13.05,0,6.3-1.15,9.99-7.5,12.03-3.32,1.08-7.07,1.46-14.28,1.46h-10.24v16.35h-16.3v-44.93Zm22.21,22.72c7.21,0,8.51-1.02,9.09-1.91.72-1.08.87-2.93.87-5.6,0-1.65.14-4.45-.72-6.11-1.01-1.91-3.17-2.74-8.94-2.74h-6.2v16.35h5.91Z"/>
          <path class="cls-2" d="m355.89,878.12v38.5h19.33v6.43h-35.62v-44.93h16.3Z"/>
          <path class="cls-2" d="m393.96,878.12h21.35l17.59,44.93h-17.59l-3.32-10.25h-16.15l-3.46,10.25h-16.01l17.59-44.93Zm3.75,28.89h12.4l-4.18-13.3-1.59-5.92h-.43l-1.59,5.92-4.62,13.3Z"/>
          <path class="cls-2" d="m441.56,923.05v-38.5h-13.56v-6.43h43.41v6.43h-13.56v38.5h-16.3Z"/>
          <path class="cls-2" d="m512.51,878.12v6.36h-17.31v13.24h16.59v6.11h-16.59v19.22h-16.3v-44.93h33.6Z"/>
          <path class="cls-2" d="m522.75,887.35c2.6-4.77,9.81-9.67,23.94-9.67s21.35,4.9,23.94,9.67c2.31,4.26,2.45,10.44,2.45,13.24s-.14,8.97-2.45,13.24c-2.6,4.77-9.81,9.67-23.94,9.67s-21.34-4.9-23.94-9.67c-2.31-4.26-2.45-10.44-2.45-13.24s.14-8.97,2.45-13.24Zm32.74,2.61c-.58-2.55-1.44-5.85-8.8-5.85s-8.22,3.31-8.8,5.85c-.72,3.75-.58,6.75-.58,10.63s-.14,6.87.58,10.63c.58,2.55,1.44,5.85,8.8,5.85s8.22-3.31,8.8-5.85c.72-3.75.58-6.75.58-10.63s.14-6.87-.58-10.63Z"/>
          <path class="cls-2" d="m615.63,906.63c-.87-1.59-3.75-2.61-11.39-2.61h-3.89v19.03h-16.3v-44.93h22.21c7.79,0,13.99.7,19.04,2.93,5.19,2.29,6.49,4.77,6.49,9.16,0,6.11-2.45,8.34-7.5,9.55-2.88.7-5.77.83-10.53,1.02v.19c6.06.32,8.65.64,11.1,1.4,9.09,2.74,7.64,7.32,7.5,12.92-.14,3.5.58,4.65,3.17,6.49l.14,1.27h-15.14c-2.6-2.23-4.18-4.84-4.18-10.56,0-1.72.14-4.26-.72-5.85Zm-8.51-8.84c6.06,0,7.07-1.02,7.64-1.91.72-1.34.87-3.18.87-4.26,0-1.59-.29-3.31-.72-4.39-.72-1.91-2.16-2.74-8.36-2.74h-6.2v13.3h6.78Z"/>
          <path class="cls-2" d="m667.69,923.05l-10.1-34.94h-.43l.43,4.01v30.93h-13.7v-44.93h23.36l8.51,28.7h.29l8.51-28.7h23.36v44.93h-13.7v-30.93l.43-4.01h-.43l-10.09,34.94h-16.44Z"/>
        </g>
        <rect class="cls-4" x="153.39" y="63.4" width="692.02" height="897.6"/>
        <g>
          <path class="cls-3" d="m316.79,125.87v45.78h-54.93v95.22h52.65v43.95h-52.65v138.25h-51.73V125.87h106.67Z"/>
          <path class="cls-3" d="m444.51,330.96c-2.75-11.44-11.9-18.77-36.17-18.77h-12.36v136.88h-51.73V125.87h70.5c24.72,0,44.41,5.04,60.43,21.06,16.48,16.48,20.6,34.33,20.6,65.92,0,43.95-7.78,59.97-23.8,68.67-9.16,5.04-18.31,5.95-33.42,7.33v1.37c19.23,2.29,27.47,4.58,35.25,10.07,28.84,19.68,24.26,52.65,23.8,92.93-.46,25.18,1.83,33.42,10.07,46.69l.46,9.16h-48.07c-8.24-16.02-13.28-34.79-13.28-75.99,0-12.36.46-30.67-2.29-42.12Zm-27.01-63.63c19.23,0,22.43-7.33,24.26-13.73,2.29-9.61,2.75-22.89,2.75-30.67,0-11.44-.92-23.8-2.29-31.59-2.29-13.73-6.87-19.68-26.55-19.68h-19.68v95.68h21.52Z"/>
          <path class="cls-3" d="m641.35,125.87v45.78h-54.93v92.93h52.65v43.95h-52.65v94.3h56.77v46.24h-108.5V125.87h106.66Z"/>
          <path class="cls-3" d="m775.94,125.87v45.78h-54.93v92.93h52.65v43.95h-52.65v94.3h56.77v46.24h-108.5V125.87h106.66Z"/>
        </g>
      </g>
    </symbol>
  </defs>
  <g id="App_Icon_Kit_B" data-name="App Icon Kit B">
    <g id="App_Icon_and_Badge" data-name="App Icon and Badge">
      <g id="Main">
        <use width="1024" height="1024" xlink:href="#Icon"/>
      </g>
    </g>
  </g>
</svg>